<svg width="32" height="25" viewBox="0 0 32 25" fill="none" xmlns="http://www.w3.org/2000/svg">
<path d="M29.7143 5.63264H25.555L26.2542 2.49218C26.4618 1.55978 25.6203 0.678694 24.3756 0.523115C23.1235 0.369406 21.9528 0.998461 21.7449 1.92921L20.9214 5.63264H14.1286L14.8278 2.49218C15.0354 1.55978 14.1939 0.678694 12.9492 0.523115C11.6971 0.369406 10.5264 0.998461 10.3185 1.92921L9.49286 5.63264H4.57143C3.30929 5.63264 2.28571 6.39878 2.28571 7.34349C2.28571 8.33791 3.30929 9.05432 4.57143 9.05432H8.73071L7.20714 15.8977H2.28571C1.02357 15.8977 0 16.6638 0 17.6085C0 18.5532 1.02357 19.2712 2.28571 19.2712H6.445L5.74579 22.4117C5.53821 23.3441 6.37971 24.2252 7.62436 24.3808C7.75 24.4947 7.87857 24.5 8 24.5C9.09714 24.5 10.0657 23.9071 10.2521 23.0709L11.0764 19.3675H17.8707L17.1715 22.5079C16.9639 23.4403 17.8054 24.3214 19.0501 24.477C19.1786 24.4947 19.3071 24.5 19.4286 24.5C20.5257 24.5 21.4943 23.9071 21.6807 23.0709L22.505 19.3675H27.4286C28.6907 19.3675 29.7143 18.6013 29.7143 17.7048C29.7143 16.7601 28.6907 15.9939 27.4286 15.9939H23.2693L24.7929 9.15056H29.7143C30.9764 9.15056 32 8.38496 32 7.48784C32 6.44529 30.9786 5.63264 29.7143 5.63264ZM18.6357 15.8977H11.8429L13.3643 9.05432H20.1586L18.6357 15.8977Z" fill="#7A81CC"/>
</svg>
