<svg width="32" height="32" viewBox="0 0 32 32" fill="none" xmlns="http://www.w3.org/2000/svg">
<path d="M31.9515 24.1871L30.4983 30.487C30.2942 31.3777 29.5115 32.0008 28.5946 32.0008C12.8265 31.9995 0.00146484 19.1746 0.00146484 3.40582C0.00146484 2.48957 0.624527 1.70582 1.51521 1.5027L7.81521 0.0495744C8.73271 -0.16305 9.67021 0.313199 10.0515 1.18207L12.959 7.96332C13.2988 8.76207 13.0696 9.69269 12.3977 10.2414L9.03271 12.9433C11.1565 17.2696 14.674 20.7871 19.0015 22.9121L21.7565 19.5496C22.2995 18.8758 23.2371 18.6427 24.0358 18.9886L30.8171 21.8955C31.6327 22.3246 32.164 23.2746 31.9515 24.1871Z" fill="#7A81CC"/>
</svg>
