<svg width="20" height="19" viewBox="0 0 20 19" fill="none" xmlns="http://www.w3.org/2000/svg">
<path fill-rule="evenodd" clip-rule="evenodd" d="M16.0417 2.88362C15.5213 2.33378 14.9997 2.09061 14.529 2.02184C14.052 1.95215 13.5493 2.05048 13.0578 2.31418C12.0592 2.84989 11.1928 4.03147 10.9672 5.45764C10.9399 5.66904 10.8456 5.86342 10.7033 6.01473C10.5952 6.12963 10.4595 6.2197 10.3046 6.27355C10.2007 6.3099 10.0897 6.3294 9.9754 6.32929C9.86087 6.32945 9.74962 6.30989 9.64548 6.27343C9.49066 6.21957 9.35509 6.12955 9.24712 6.01473C9.16197 5.92447 9.09304 5.8178 9.04583 5.6988C9.01525 5.62215 8.99399 5.54122 8.9832 5.45764C8.75766 4.03147 7.89121 2.8499 6.89266 2.31418C6.40113 2.05048 5.89839 1.95215 5.42138 2.02184C4.95072 2.09061 4.42914 2.33378 3.90873 2.88362C3.1063 3.73142 2.84004 4.77507 2.98228 5.99356C3.12823 7.24381 3.70586 8.64022 4.55912 10.0371C6.10229 12.5634 8.38747 14.8381 9.97521 15.937C11.5629 14.8381 13.8481 12.5634 15.3913 10.0371C16.2445 8.64022 16.8222 7.24381 16.9681 5.99356C17.1104 4.77507 16.8441 3.73142 16.0417 2.88362ZM10.4989 17.9759C12.4023 16.8581 15.2459 14.1118 17.0981 11.0797C18.0319 9.55094 18.7624 7.87201 18.9546 6.22545C19.1506 4.54713 18.7849 2.8725 17.4942 1.50881C16.7026 0.672425 15.7849 0.184094 14.8182 0.0428539C13.8578 -0.0974586 12.9251 0.115708 12.1122 0.551788C11.266 1.0058 10.5284 1.71019 9.9752 2.56844C9.42202 1.71019 8.68443 1.0058 7.83816 0.551788C7.02532 0.115708 6.0926 -0.0974585 5.13224 0.0428539C4.16552 0.184094 3.2478 0.672425 2.45618 1.50881C1.16548 2.8725 0.799853 4.54713 0.995772 6.22545C1.18798 7.87201 1.91856 9.55094 2.85235 11.0797C4.70449 14.1118 7.54812 16.8581 9.45154 17.9759C9.60906 18.0725 9.79079 18.1237 9.9752 18.1239C10.1596 18.1237 10.3413 18.0725 10.4989 17.9759Z" fill="#EF5DA8"/>
</svg>
