<svg width="32" height="24" viewBox="0 0 32 24" fill="none" xmlns="http://www.w3.org/2000/svg">
<path opacity="0.5" d="M0 21.0999C2.80702 22.8902 10.1895 25.7035 17.2632 22.6345C26.1053 18.7981 29.0526 10.7418 28.6316 6.13816L32 3.06908L28.6316 3.83635L31.1579 0.76727L26.9474 1.91817C26.386 1.40666 25.2632 0 21.8947 0C18.5263 0 14.3158 3.06908 15.5789 7.28906C12.6316 7.1612 5.89474 5.8313 2.52632 1.53459C1.54386 2.6855 0.421053 5.8313 3.78947 9.20729C3.36842 9.20729 2.27368 8.97711 1.26316 8.05639C1.12281 9.59092 1.85263 12.9669 5.89474 14.1945C5.75439 14.3224 5.13684 14.5014 3.78947 14.1945C3.36842 14.9618 6.31579 18.7982 9.26316 18.4145C8.42105 19.3097 5.38947 21.0999 0 21.0999Z" fill="#A3A7D9"/>
</svg>
