<svg width="475" height="115" viewBox="0 0 475 115" fill="none" xmlns="http://www.w3.org/2000/svg">
<path d="M82.8024 71.072C84.3384 71.072 85.1064 71.808 85.1064 73.28C85.1064 74.176 84.0504 75.68 81.9384 77.792C79.8904 79.904 77.3624 82.112 74.3544 84.416C71.3464 86.656 67.7944 88.64 63.6984 90.368C59.6024 92.032 55.6024 92.864 51.6984 92.864C47.7944 92.864 44.5304 91.392 41.9064 88.448C39.2824 85.44 37.9704 80.704 37.9704 74.24C37.9704 67.776 39.3144 61.824 42.0024 56.384C44.6904 50.88 48.1144 46.336 52.2744 42.752C56.4344 39.104 61.0744 36 66.1944 33.44C75.9864 28.512 85.5224 26.048 94.8024 26.048C105.938 26.048 111.506 28.96 111.506 34.784C111.506 38.432 109.586 42.336 105.746 46.496C101.906 50.656 98.7704 52.736 96.3384 52.736C94.6744 52.736 93.8424 52.256 93.8424 51.296C93.8424 50.144 94.2904 49.056 95.1864 48.032C98.3224 44.896 100.21 42.88 100.85 41.984C101.554 41.088 101.906 40.448 101.906 40.064C101.906 39.68 101.554 39.488 100.85 39.488C98.5464 39.488 94.9944 41.088 90.1944 44.288C85.3944 47.488 80.5944 51.328 75.7944 55.808C70.9944 60.288 66.7704 65.152 63.1224 70.4C59.5384 75.648 57.7464 80.064 57.7464 83.648C57.7464 84.864 58.4184 85.472 59.7624 85.472C61.7464 85.472 65.9384 83.072 72.3384 78.272C78.8024 73.472 82.2904 71.072 82.8024 71.072ZM139.293 87.488C137.053 89.216 134.333 90.88 131.133 92.48C127.997 94.08 125.341 94.88 123.165 94.88C121.053 94.88 119.357 94.24 118.077 92.96C116.797 91.68 116.157 90.112 116.157 88.256C116.157 85.184 118.365 81.056 122.781 75.872C123.165 75.488 123.357 75.2 123.357 75.008C123.357 74.752 123.293 74.624 123.165 74.624C123.037 74.624 122.557 74.784 121.725 75.104C120.957 75.36 118.781 76.832 115.197 79.52C111.613 82.144 108.125 84.96 104.733 87.968C101.341 90.912 98.9091 92.384 97.4371 92.384C96.0291 92.384 94.9731 91.776 94.2691 90.56C93.6291 89.344 93.3091 87.968 93.3091 86.432C93.3091 81.696 96.9891 74.496 104.349 64.832C111.773 55.168 119.517 46.56 127.581 39.008C135.645 31.392 140.797 27.584 143.037 27.584C144.125 27.584 145.149 28.064 146.109 29.024C147.133 29.92 147.645 31.168 147.645 32.768C147.645 34.304 145.725 37.76 141.885 43.136C138.045 48.512 133.757 54.176 129.021 60.128C123.069 67.552 120.093 71.584 120.093 72.224C120.093 72.48 120.221 72.608 120.477 72.608C120.733 72.608 121.821 72.096 123.741 71.072C125.661 69.984 127.741 68.992 129.981 68.096C132.221 67.136 133.757 66.592 134.589 66.464C135.485 66.272 136.509 66.176 137.661 66.176C138.877 66.176 140.061 66.432 141.213 66.944C142.429 67.456 143.037 68.224 143.037 69.248C143.037 70.208 140.701 73.376 136.029 78.752C131.421 84.064 129.117 87.104 129.117 87.872C129.117 88.576 129.437 88.928 130.077 88.928C131.421 88.928 134.045 87.52 137.949 84.704C139.421 83.68 140.285 83.104 140.541 82.976C140.797 82.848 141.085 82.784 141.405 82.784C142.301 82.784 142.749 83.232 142.749 84.128C142.749 84.64 141.597 85.76 139.293 87.488ZM177.432 88.16C177.432 88.48 177.656 88.704 178.104 88.832C178.552 88.832 180.088 87.936 182.712 86.144C185.4 84.288 186.904 83.264 187.224 83.072C187.608 82.88 187.96 82.784 188.28 82.784C189.176 82.784 189.624 83.232 189.624 84.128C189.624 84.96 187.352 86.848 182.808 89.792C178.328 92.736 175.16 94.208 173.304 94.208C172.536 94.208 171.704 93.888 170.808 93.248C169.976 92.608 169.56 91.872 169.56 91.04C169.56 90.144 169.784 89.184 170.232 88.16C170.68 87.136 170.904 86.464 170.904 86.144C170.904 85.76 170.808 85.568 170.616 85.568C170.424 85.568 170.232 85.632 170.04 85.76C163.832 90.432 159.256 92.768 156.312 92.768C154.648 92.768 153.336 92.16 152.376 90.944C151.416 89.728 150.84 88.512 150.648 87.296L150.456 85.472C150.456 83.36 151.256 80.928 152.856 78.176C154.52 75.36 156.664 72.704 159.288 70.208C161.976 67.648 165.24 65.504 169.08 63.776C172.984 62.048 176.952 61.184 180.984 61.184C183.16 61.184 185.176 61.76 187.032 62.912C188.952 64.064 189.912 65.408 189.912 66.944C189.912 68.48 188.408 69.408 185.4 69.728C183.16 70.24 179.448 72.096 174.264 75.296C169.144 78.432 166.584 80.832 166.584 82.496C166.584 83.2 166.936 83.552 167.64 83.552C168.92 83.552 171.928 81.728 176.664 78.08C181.464 74.432 184.344 72.608 185.304 72.608C186.264 72.608 186.744 73.184 186.744 74.336C186.744 75.168 186.424 75.968 185.784 76.736C185.208 77.44 184.792 77.952 184.536 78.272C184.024 78.912 182.712 80.352 180.6 82.592C178.488 84.768 177.432 86.624 177.432 88.16ZM203.385 53.312C203.385 52.288 206.137 51.36 211.641 50.528C217.145 49.696 223.033 49.12 229.305 48.8C234.553 44.064 239.289 40.032 243.513 36.704L245.625 34.976C246.585 34.976 247.065 35.68 247.065 37.088L247.257 41.792C247.065 42.496 245.721 44.704 243.225 48.416H247.929C255.033 48.416 259.129 49.12 260.217 50.528C261.369 51.872 261.945 52.96 261.945 53.792C261.945 54.88 260.857 55.456 258.681 55.52C256.505 55.584 249.689 55.616 238.233 55.616C229.081 65.024 221.913 73.376 216.729 80.672C214.745 83.36 213.017 85.76 211.545 87.872C210.073 89.984 208.921 91.456 208.089 92.288C207.321 93.184 206.585 93.632 205.881 93.632C203.769 93.632 201.977 92.928 200.505 91.52C199.033 90.112 198.297 88.384 198.297 86.336C198.297 80.704 206.137 70.496 221.817 55.712H207.033C204.601 55.712 203.385 54.912 203.385 53.312ZM262.581 69.248C262.581 70.976 263.605 71.84 265.653 71.84C267.573 71.84 269.685 71.36 271.989 70.4C274.293 69.44 275.541 68.96 275.733 68.96C275.925 68.96 276.117 69.12 276.309 69.44C276.565 69.76 276.693 70.08 276.693 70.4C276.693 71.104 275.189 72.032 272.181 73.184C269.237 74.272 267.093 74.816 265.749 74.816C264.405 74.816 263.445 74.816 262.869 74.816C262.357 74.752 261.941 75.072 261.621 75.776C256.885 84.672 252.181 90.272 247.509 92.576C245.461 93.6 243.285 94.112 240.981 94.112C238.741 94.112 236.885 93.376 235.413 91.904C234.005 90.368 233.301 87.968 233.301 84.704C233.301 80.16 234.773 75.936 237.717 72.032C240.725 68.064 244.117 65.088 247.893 63.104C251.669 61.12 255.093 60.128 258.165 60.128C263.349 60.704 265.941 62.272 265.941 64.832C265.941 65.536 265.749 66.176 265.365 66.752C265.045 67.264 264.757 67.584 264.501 67.712C264.309 67.776 264.053 67.84 263.733 67.904C262.965 68.096 262.581 68.544 262.581 69.248ZM254.709 73.664C252.661 75.2 250.645 77.152 248.661 79.52C246.741 81.888 245.781 83.84 245.781 85.376C245.781 86.848 246.197 87.584 247.029 87.584C248.309 87.584 250.645 85.632 254.037 81.728C257.493 77.76 259.221 74.496 259.221 71.936C259.221 71.552 258.965 71.36 258.453 71.36C258.005 71.36 256.757 72.128 254.709 73.664ZM295.028 56.192C295.476 56.192 295.892 56.416 296.276 56.864C296.66 57.248 296.852 57.728 296.852 58.304C296.852 58.816 296.532 59.488 295.892 60.32C293.396 63.392 291.732 65.344 290.9 66.176C290.132 66.944 289.748 67.456 289.748 67.712C289.748 67.968 289.94 68.096 290.324 68.096C290.772 68.096 292.5 67.552 295.508 66.464C298.516 65.312 300.5 64.736 301.46 64.736C302.42 64.736 303.412 65.152 304.436 65.984C305.46 66.752 305.972 67.776 305.972 69.056C305.972 70.272 304.02 73.12 300.116 77.6C296.212 82.016 294.26 84.896 294.26 86.24C294.26 86.496 294.356 86.624 294.548 86.624C294.868 86.624 295.444 86.432 296.276 86.048C297.108 85.6 297.62 85.376 297.812 85.376C298.516 85.376 298.868 85.632 298.868 86.144C298.868 88.128 297.3 90.112 294.164 92.096C291.028 94.08 288.372 95.072 286.196 95.072C284.084 95.072 282.356 94.464 281.012 93.248C279.668 92.096 278.996 90.528 278.996 88.544C278.996 86.56 279.956 84.352 281.876 81.92C283.86 79.424 285.876 77.664 287.924 76.64C290.036 75.616 291.092 74.784 291.092 74.144C291.092 73.952 291.06 73.824 290.996 73.76C288.18 74.912 285.876 75.488 284.084 75.488C280.564 75.488 278.804 74.464 278.804 72.416C278.804 70.048 280.852 66.944 284.948 63.104C289.044 59.264 292.404 56.96 295.028 56.192ZM310.764 89.6C310.764 91.008 311.244 92.16 312.204 93.056C313.164 94.016 314.412 94.496 315.948 94.496C317.484 94.496 320.108 92.64 323.82 88.928C327.532 85.216 330.828 81.344 333.708 77.312C336.588 73.28 338.028 70.72 338.028 69.632C338.028 66.24 336.588 64.544 333.708 64.544C329.1 65.376 324.108 68.64 318.732 74.336C313.42 80.032 310.764 85.12 310.764 89.6ZM339.756 61.472C338.668 61.472 337.804 61.088 337.164 60.32C336.524 59.552 336.14 58.784 336.012 58.016L335.916 56.96C336.236 53.888 337.612 51.552 340.044 49.952C342.476 48.352 344.588 47.552 346.38 47.552C349.004 47.552 350.316 48.864 350.316 51.488C350.316 53.152 349.324 55.168 347.34 57.536C345.356 59.84 342.828 61.152 339.756 61.472ZM359.872 79.616C362.496 79.616 363.808 80.896 363.808 83.456C363.808 85.76 362.464 88.032 359.776 90.272C357.152 92.448 354.752 93.536 352.576 93.536C350.464 93.536 349.056 93.056 348.352 92.096C347.648 91.136 347.296 90.272 347.296 89.504C347.296 88.672 347.584 87.808 348.16 86.912C348.8 85.952 349.6 84.928 350.56 83.84C351.584 82.688 352.928 81.696 354.592 80.864C356.32 80.032 358.08 79.616 359.872 79.616ZM396.191 79.616C398.815 79.616 400.127 80.896 400.127 83.456C400.127 85.76 398.783 88.032 396.095 90.272C393.471 92.448 391.071 93.536 388.895 93.536C386.783 93.536 385.375 93.056 384.671 92.096C383.967 91.136 383.615 90.272 383.615 89.504C383.615 88.672 383.903 87.808 384.479 86.912C385.119 85.952 385.919 84.928 386.879 83.84C387.903 82.688 389.247 81.696 390.911 80.864C392.639 80.032 394.399 79.616 396.191 79.616ZM432.509 79.616C435.133 79.616 436.445 80.896 436.445 83.456C436.445 85.76 435.101 88.032 432.413 90.272C429.789 92.448 427.389 93.536 425.213 93.536C423.101 93.536 421.693 93.056 420.989 92.096C420.285 91.136 419.933 90.272 419.933 89.504C419.933 88.672 420.221 87.808 420.797 86.912C421.437 85.952 422.237 84.928 423.197 83.84C424.221 82.688 425.565 81.696 427.229 80.864C428.957 80.032 430.717 79.616 432.509 79.616Z" fill="#E66D17"/>
</svg>
